<svg width="160" height="169" viewBox="0 0 160 169" fill="none" xmlns="http://www.w3.org/2000/svg">
<ellipse cx="73.5" cy="91" rx="73.5" ry="78" fill="#D9D9D9"/>
<ellipse cx="104.008" cy="54.511" rx="54.9986" ry="54.502" fill="#D9D9D9"/>
<path d="M59.25 81.3113C65.9986 74.5629 76.9402 74.5629 83.6888 81.3113C90.4369 88.0599 90.4369 99.0014 83.6888 105.75" stroke="#134177" stroke-width="8.5"/>
<path d="M38.86 126.14C54.5726 141.853 78.4873 144.365 96.8221 133.675C101.182 131.133 103.362 129.863 103.495 127.276C103.628 124.69 101.178 122.9 96.2773 119.321C87.1913 112.686 78.2459 104.571 69.3369 95.663C60.4283 86.754 52.3138 77.8088 45.6784 68.7228C42.0995 63.8222 40.3101 61.3719 37.7237 61.5052C35.1372 61.6384 33.8664 63.8182 31.3248 68.1777C20.6356 86.5126 23.1473 110.427 38.86 126.14Z" stroke="#134177" stroke-width="8.5" stroke-linejoin="round"/>
<path d="M91.4905 41.833C99.7491 42.6808 107.34 45.9611 113.182 51.7933C119.042 57.644 122.33 65.2528 123.167 73.5283M105.967 76.2497C104.988 72.034 102.966 68.1934 99.8607 65.0933C96.7711 62.0088 92.9474 59.995 88.75 59.0121" stroke="#134177" stroke-width="8.5" stroke-linecap="round"/>
</svg>
